<?xml version="1.0" encoding="UTF-8" standalone="no"?>
<!DOCTYPE svg PUBLIC "-//W3C//DTD SVG 1.1//EN"
 "http://www.w3.org/Graphics/SVG/1.1/DTD/svg11.dtd">
<!-- Generated by graphviz version 2.40.1 (20161225.0304)
 -->
<!-- Title: systemd Pages: 1 -->
<svg width="1885pt" height="188pt"
 viewBox="0.00 0.00 1884.78 188.00" xmlns="http://www.w3.org/2000/svg" xmlns:xlink="http://www.w3.org/1999/xlink">
<g id="graph0" class="graph" transform="scale(1 1) rotate(0) translate(4 184)">
<title>systemd</title>
<polygon fill="#ffffff" stroke="transparent" points="-4,4 -4,-184 1880.782,-184 1880.782,4 -4,4"/>
<!-- rtl&#45;bias&#45;t.service -->
<g id="node1" class="node">
<title>rtl&#45;bias&#45;t.service</title>
<ellipse fill="none" stroke="#000000" cx="1018.7889" cy="-162" rx="87.1846" ry="18"/>
<text text-anchor="middle" x="1018.7889" y="-158.3" font-family="Times,serif" font-size="14.00" fill="#000000">rtl&#45;bias&#45;t.service</text>
</g>
<!-- mnt.mount -->
<g id="node2" class="node">
<title>mnt.mount</title>
<ellipse fill="none" stroke="#000000" cx="1399.7889" cy="-90" rx="61.99" ry="18"/>
<text text-anchor="middle" x="1399.7889" y="-86.3" font-family="Times,serif" font-size="14.00" fill="#000000">mnt.mount</text>
</g>
<!-- rtl&#45;bias&#45;t.service&#45;&gt;mnt.mount -->
<g id="edge1" class="edge">
<title>rtl&#45;bias&#45;t.service&#45;&gt;mnt.mount</title>
<path fill="none" stroke="#00ff00" d="M1083.4204,-149.7862C1154.4469,-136.3638 1267.7269,-114.9566 1337.718,-101.7299"/>
<polygon fill="#00ff00" stroke="#00ff00" points="1338.5441,-105.1359 1347.7202,-99.8398 1337.2442,-98.2576 1338.5441,-105.1359"/>
</g>
<!-- systemd&#45;journald.socket -->
<g id="node4" class="node">
<title>systemd&#45;journald.socket</title>
<ellipse fill="none" stroke="#000000" cx="124.7889" cy="-18" rx="124.5782" ry="18"/>
<text text-anchor="middle" x="124.7889" y="-14.3" font-family="Times,serif" font-size="14.00" fill="#000000">systemd&#45;journald.socket</text>
</g>
<!-- mnt.mount&#45;&gt;systemd&#45;journald.socket -->
<g id="edge3" class="edge">
<title>mnt.mount&#45;&gt;systemd&#45;journald.socket</title>
<path fill="none" stroke="#00ff00" d="M1338.0719,-88.9744C1166.4643,-85.7146 669.1817,-73.493 257.7889,-36 246.1866,-34.9426 234.0429,-33.6116 222.0119,-32.1542"/>
<polygon fill="#00ff00" stroke="#00ff00" points="222.302,-28.6634 211.9467,-30.9035 221.4388,-35.61 222.302,-28.6634"/>
</g>
<!-- dev&#45;disk&#45;by\x2duuid&#45;b512c8d3\x2d48a7\x2d4d16\x2dbac4\x2da3ce249be3a8.device -->
<g id="node5" class="node">
<title>dev&#45;disk&#45;by\x2duuid&#45;b512c8d3\x2d48a7\x2d4d16\x2dbac4\x2da3ce249be3a8.device</title>
<ellipse fill="none" stroke="#000000" cx="655.7889" cy="-18" rx="388.8311" ry="18"/>
<text text-anchor="middle" x="655.7889" y="-14.3" font-family="Times,serif" font-size="14.00" fill="#000000">dev&#45;disk&#45;byx2duuid&#45;b512c8d3x2d48a7x2d4d16x2dbac4x2da3ce249be3a8.device</text>
</g>
<!-- mnt.mount&#45;&gt;dev&#45;disk&#45;by\x2duuid&#45;b512c8d3\x2d48a7\x2d4d16\x2dbac4\x2da3ce249be3a8.device -->
<g id="edge4" class="edge">
<title>mnt.mount&#45;&gt;dev&#45;disk&#45;by\x2duuid&#45;b512c8d3\x2d48a7\x2d4d16\x2dbac4\x2da3ce249be3a8.device</title>
<path fill="none" stroke="#00ff00" d="M1341.0979,-84.3202C1232.9603,-73.8553 998.2983,-51.1461 833.8421,-35.231"/>
<polygon fill="#00ff00" stroke="#00ff00" points="833.8972,-31.72 823.6065,-34.2404 833.2229,-38.6875 833.8972,-31.72"/>
</g>
<!-- system.slice -->
<g id="node6" class="node">
<title>system.slice</title>
<ellipse fill="none" stroke="#000000" cx="1130.7889" cy="-18" rx="68.4888" ry="18"/>
<text text-anchor="middle" x="1130.7889" y="-14.3" font-family="Times,serif" font-size="14.00" fill="#000000">system.slice</text>
</g>
<!-- mnt.mount&#45;&gt;system.slice -->
<g id="edge5" class="edge">
<title>mnt.mount&#45;&gt;system.slice</title>
<path fill="none" stroke="#00ff00" d="M1351.7658,-78.5118C1305.1265,-66.5516 1234.5441,-47.7175 1185.7086,-34.2386"/>
<polygon fill="#00ff00" stroke="#00ff00" points="1186.5113,-30.8292 1175.9399,-31.5331 1184.6429,-37.5753 1186.5113,-30.8292"/>
</g>
<!-- mnt.mount&#45;&gt;system.slice -->
<g id="edge9" class="edge">
<title>mnt.mount&#45;&gt;system.slice</title>
<path fill="none" stroke="#000000" d="M1356.7144,-77.0447C1311.8745,-64.557 1241.4521,-45.6872 1191.1072,-32.6566"/>
<polygon fill="#000000" stroke="#000000" points="1191.8767,-29.2406 1181.3195,-30.1319 1190.1283,-36.0187 1191.8767,-29.2406"/>
</g>
<!-- dev&#45;sda1.device -->
<g id="node7" class="node">
<title>dev&#45;sda1.device</title>
<ellipse fill="none" stroke="#000000" cx="1301.7889" cy="-18" rx="85.2851" ry="18"/>
<text text-anchor="middle" x="1301.7889" y="-14.3" font-family="Times,serif" font-size="14.00" fill="#000000">dev&#45;sda1.device</text>
</g>
<!-- mnt.mount&#45;&gt;dev&#45;sda1.device -->
<g id="edge6" class="edge">
<title>mnt.mount&#45;&gt;dev&#45;sda1.device</title>
<path fill="none" stroke="#00ff00" d="M1376.5643,-72.937C1363.8148,-63.57 1347.8107,-51.8119 1333.8834,-41.5796"/>
<polygon fill="#00ff00" stroke="#00ff00" points="1335.6587,-38.5409 1325.5276,-35.4407 1331.5142,-44.1821 1335.6587,-38.5409"/>
</g>
<!-- local&#45;fs&#45;pre.target -->
<g id="node8" class="node">
<title>local&#45;fs&#45;pre.target</title>
<ellipse fill="none" stroke="#000000" cx="1498.7889" cy="-18" rx="94.4839" ry="18"/>
<text text-anchor="middle" x="1498.7889" y="-14.3" font-family="Times,serif" font-size="14.00" fill="#000000">local&#45;fs&#45;pre.target</text>
</g>
<!-- mnt.mount&#45;&gt;local&#45;fs&#45;pre.target -->
<g id="edge7" class="edge">
<title>mnt.mount&#45;&gt;local&#45;fs&#45;pre.target</title>
<path fill="none" stroke="#00ff00" d="M1423,-73.1192C1435.8733,-63.7568 1452.0885,-51.964 1466.2134,-41.6913"/>
<polygon fill="#00ff00" stroke="#00ff00" points="1468.6607,-44.2392 1474.6895,-35.5269 1464.5435,-38.578 1468.6607,-44.2392"/>
</g>
<!-- &#45;.mount -->
<g id="node9" class="node">
<title>&#45;.mount</title>
<ellipse fill="none" stroke="#000000" cx="1656.7889" cy="-18" rx="46.2923" ry="18"/>
<text text-anchor="middle" x="1656.7889" y="-14.3" font-family="Times,serif" font-size="14.00" fill="#000000">&#45;.mount</text>
</g>
<!-- mnt.mount&#45;&gt;&#45;.mount -->
<g id="edge8" class="edge">
<title>mnt.mount&#45;&gt;&#45;.mount</title>
<path fill="none" stroke="#00ff00" d="M1443.3492,-77.2318C1482.6239,-66.745 1541.6358,-51.1953 1592.7889,-36 1597.9054,-34.4801 1603.2669,-32.8159 1608.6318,-31.1327"/>
<polygon fill="#00ff00" stroke="#00ff00" points="1609.7516,-34.4496 1618.2401,-28.1095 1607.6506,-27.7723 1609.7516,-34.4496"/>
</g>
<!-- mnt.mount&#45;&gt;&#45;.mount -->
<g id="edge10" class="edge">
<title>mnt.mount&#45;&gt;&#45;.mount</title>
<path fill="none" stroke="#000000" d="M1449.4647,-79.3C1492.5588,-68.8622 1556.156,-52.229 1610.7889,-36 1612.4443,-35.5083 1614.1252,-35.0014 1615.8182,-34.4837"/>
<polygon fill="#000000" stroke="#000000" points="1617.0577,-37.7631 1625.551,-31.4295 1614.9618,-31.0843 1617.0577,-37.7631"/>
</g>
<!-- umount.target -->
<g id="node10" class="node">
<title>umount.target</title>
<ellipse fill="none" stroke="#000000" cx="1798.7889" cy="-18" rx="77.9862" ry="18"/>
<text text-anchor="middle" x="1798.7889" y="-14.3" font-family="Times,serif" font-size="14.00" fill="#000000">umount.target</text>
</g>
<!-- mnt.mount&#45;&gt;umount.target -->
<g id="edge11" class="edge">
<title>mnt.mount&#45;&gt;umount.target</title>
<path fill="none" stroke="#ff0000" d="M1452.1479,-80.3702C1512.6552,-69.9872 1614.8934,-52.6944 1702.7889,-36 1710.6532,-34.5063 1718.9044,-32.8785 1727.1375,-31.2323"/>
<polygon fill="#ff0000" stroke="#ff0000" points="1728.0286,-34.6233 1737.1438,-29.2229 1726.6504,-27.7603 1728.0286,-34.6233"/>
</g>
<!-- local&#45;fs.target -->
<g id="node3" class="node">
<title>local&#45;fs.target</title>
<ellipse fill="none" stroke="#000000" cx="1198.7889" cy="-162" rx="75.2868" ry="18"/>
<text text-anchor="middle" x="1198.7889" y="-158.3" font-family="Times,serif" font-size="14.00" fill="#000000">local&#45;fs.target</text>
</g>
<!-- local&#45;fs.target&#45;&gt;mnt.mount -->
<g id="edge2" class="edge">
<title>local&#45;fs.target&#45;&gt;mnt.mount</title>
<path fill="none" stroke="#00ff00" d="M1240.9251,-146.9064C1273.0907,-135.3844 1317.4628,-119.49 1351.1383,-107.4271"/>
<polygon fill="#00ff00" stroke="#00ff00" points="1352.5423,-110.642 1360.7762,-103.9747 1350.1816,-104.0521 1352.5423,-110.642"/>
</g>
<!-- umount.target&#45;&gt;mnt.mount -->
<g id="edge15" class="edge">
<title>umount.target&#45;&gt;mnt.mount</title>
<path fill="none" stroke="#00ff00" d="M1745.035,-31.2226C1736.9367,-32.8721 1728.6686,-34.5034 1720.7889,-36 1632.8713,-52.6986 1530.6037,-69.9959 1465.4736,-80.3781"/>
<polygon fill="#00ff00" stroke="#00ff00" points="1464.6758,-76.9607 1455.3474,-81.9838 1465.7722,-83.8744 1464.6758,-76.9607"/>
</g>
<!-- python3&#45;web.service -->
<g id="node11" class="node">
<title>python3&#45;web.service</title>
<ellipse fill="none" stroke="#000000" cx="1399.7889" cy="-162" rx="107.4815" ry="18"/>
<text text-anchor="middle" x="1399.7889" y="-158.3" font-family="Times,serif" font-size="14.00" fill="#000000">python3&#45;web.service</text>
</g>
<!-- python3&#45;web.service&#45;&gt;mnt.mount -->
<g id="edge12" class="edge">
<title>python3&#45;web.service&#45;&gt;mnt.mount</title>
<path fill="none" stroke="#00ff00" d="M1399.7889,-143.8314C1399.7889,-136.131 1399.7889,-126.9743 1399.7889,-118.4166"/>
<polygon fill="#00ff00" stroke="#00ff00" points="1403.289,-118.4132 1399.7889,-108.4133 1396.289,-118.4133 1403.289,-118.4132"/>
</g>
<!-- multi&#45;user.target -->
<g id="node12" class="node">
<title>multi&#45;user.target</title>
<ellipse fill="none" stroke="#000000" cx="1613.7889" cy="-162" rx="89.0842" ry="18"/>
<text text-anchor="middle" x="1613.7889" y="-158.3" font-family="Times,serif" font-size="14.00" fill="#000000">multi&#45;user.target</text>
</g>
<!-- multi&#45;user.target&#45;&gt;mnt.mount -->
<g id="edge13" class="edge">
<title>multi&#45;user.target&#45;&gt;mnt.mount</title>
<path fill="none" stroke="#00ff00" d="M1563.8553,-147.0816C1528.4063,-135.6359 1481.2353,-119.8006 1446.5247,-107.7116"/>
<polygon fill="#00ff00" stroke="#00ff00" points="1447.6799,-104.4078 1437.0851,-104.408 1445.3676,-111.0149 1447.6799,-104.4078"/>
</g>
<!-- multi&#45;user.target&#45;&gt;mnt.mount -->
<g id="edge14" class="edge">
<title>multi&#45;user.target&#45;&gt;mnt.mount</title>
<path fill="none" stroke="#a8a8a8" d="M1572.0154,-146.0209C1537.8983,-134.0792 1489.5933,-117.828 1452.7717,-105.9044"/>
<polygon fill="#a8a8a8" stroke="#a8a8a8" points="1453.7854,-102.5539 1443.1938,-102.8177 1451.6382,-109.2164 1453.7854,-102.5539"/>
</g>
</g>
</svg>
